<svg width="1384" height="109" viewBox="0 0 1384 109" fill="none" xmlns="http://www.w3.org/2000/svg">
<rect y="19" width="1384" height="2" fill="url(#paint0_linear_16_105)"/>
<rect y="25" width="1384" height="2" fill="url(#paint1_linear_16_105)"/>
<rect y="31" width="1384" height="2" fill="url(#paint2_linear_16_105)"/>
<rect y="37" width="1384" height="2" fill="url(#paint3_linear_16_105)"/>
<rect y="43" width="1384" height="2" fill="url(#paint4_linear_16_105)"/>
<rect y="49" width="1384" height="2" fill="url(#paint5_linear_16_105)"/>
<rect y="55" width="1384" height="2" fill="url(#paint6_linear_16_105)"/>
<rect y="61" width="1384" height="2" fill="url(#paint7_linear_16_105)"/>
<rect y="67" width="1384" height="2" fill="url(#paint8_linear_16_105)"/>
<rect y="73" width="1384" height="2" fill="url(#paint9_linear_16_105)"/>
<rect y="79" width="1384" height="2" fill="url(#paint10_linear_16_105)"/>
<rect y="85" width="1384" height="2" fill="url(#paint11_linear_16_105)"/>
<rect y="91" width="1384" height="2" fill="url(#paint12_linear_16_105)"/>
<rect y="97" width="1384" height="2" fill="url(#paint13_linear_16_105)"/>
<mask id="path-15-outside-1_16_105" maskUnits="userSpaceOnUse" x="16" y="32" width="481" height="53" fill="black">
<rect fill="white" x="16" y="32" width="481" height="53"/>
<path d="M17.625 84V78.375H40.125V61.5H23.25V55.875H17.625V39H23.25V33.375H51.375V39H28.875V55.875H45.75V61.5H51.375V78.375H45.75V84H17.625ZM57 84V33.375H68.25V55.875H85.125V33.375H96.375V84H85.125V61.5H68.25V84H57ZM102 84V78.375H107.625V39H102V33.375H124.5V39H118.875V78.375H124.5V84H102ZM158.25 55.875V39H141.375V55.875H158.25ZM130.125 84V33.375H163.875V39H169.5V55.875H163.875V61.5H141.375V84H130.125ZM203.25 84V39H192V33.375H225.75V39H214.5V84H203.25ZM259.5 55.875V39H242.625V55.875H259.5ZM231.375 84V33.375H265.125V39H270.75V55.875H265.125V61.5H270.75V84H259.5V61.5H242.625V84H231.375ZM304.5 67.125V44.625H293.25V67.125H304.5ZM276.375 84V61.5H282V44.625H287.625V39H293.25V33.375H304.5V39H310.125V44.625H315.75V61.5H321.375V84H310.125V72.75H287.625V84H276.375ZM332.625 84V78.375H327V39H332.625V33.375H360.75V39H338.25V72.75H360.75V84H332.625ZM366.375 84V33.375H377.625V50.25H383.25V44.625H388.875V39H394.5V33.375H405.75V44.625H400.125V50.25H394.5V55.875H388.875V61.5H394.5V67.125H400.125V72.75H405.75V84H394.5V78.375H388.875V72.75H383.25V67.125H377.625V84H366.375ZM417 84V78.375H411.375V39H417V33.375H450.75V39H422.625V55.875H445.125V61.5H422.625V72.75H450.75V84H417ZM484.5 55.875V39H467.625V55.875H484.5ZM456.375 84V33.375H490.125V39H495.75V55.875H490.125V61.5H495.75V84H484.5V61.5H467.625V84H456.375Z"/>
</mask>
<path d="M17.625 84V78.375H40.125V61.5H23.25V55.875H17.625V39H23.25V33.375H51.375V39H28.875V55.875H45.75V61.5H51.375V78.375H45.75V84H17.625ZM57 84V33.375H68.25V55.875H85.125V33.375H96.375V84H85.125V61.5H68.25V84H57ZM102 84V78.375H107.625V39H102V33.375H124.5V39H118.875V78.375H124.5V84H102ZM158.25 55.875V39H141.375V55.875H158.25ZM130.125 84V33.375H163.875V39H169.5V55.875H163.875V61.5H141.375V84H130.125ZM203.25 84V39H192V33.375H225.75V39H214.5V84H203.25ZM259.5 55.875V39H242.625V55.875H259.5ZM231.375 84V33.375H265.125V39H270.75V55.875H265.125V61.5H270.75V84H259.5V61.5H242.625V84H231.375ZM304.5 67.125V44.625H293.25V67.125H304.5ZM276.375 84V61.5H282V44.625H287.625V39H293.25V33.375H304.5V39H310.125V44.625H315.75V61.5H321.375V84H310.125V72.75H287.625V84H276.375ZM332.625 84V78.375H327V39H332.625V33.375H360.75V39H338.25V72.75H360.75V84H332.625ZM366.375 84V33.375H377.625V50.25H383.25V44.625H388.875V39H394.5V33.375H405.75V44.625H400.125V50.25H394.5V55.875H388.875V61.5H394.5V67.125H400.125V72.75H405.75V84H394.5V78.375H388.875V72.75H383.25V67.125H377.625V84H366.375ZM417 84V78.375H411.375V39H417V33.375H450.75V39H422.625V55.875H445.125V61.5H422.625V72.75H450.75V84H417ZM484.5 55.875V39H467.625V55.875H484.5ZM456.375 84V33.375H490.125V39H495.75V55.875H490.125V61.5H495.75V84H484.5V61.5H467.625V84H456.375Z" fill="url(#paint14_linear_16_105)"/>
<path d="M17.625 84H16.625V85H17.625V84ZM17.625 78.375V77.375H16.625V78.375H17.625ZM40.125 78.375V79.375H41.125V78.375H40.125ZM40.125 61.5H41.125V60.5H40.125V61.5ZM23.25 61.5H22.25V62.5H23.25V61.5ZM23.25 55.875H24.25V54.875H23.25V55.875ZM17.625 55.875H16.625V56.875H17.625V55.875ZM17.625 39V38H16.625V39H17.625ZM23.25 39V40H24.25V39H23.25ZM23.25 33.375V32.375H22.25V33.375H23.25ZM51.375 33.375H52.375V32.375H51.375V33.375ZM51.375 39V40H52.375V39H51.375ZM28.875 39V38H27.875V39H28.875ZM28.875 55.875H27.875V56.875H28.875V55.875ZM45.75 55.875H46.75V54.875H45.75V55.875ZM45.75 61.5H44.75V62.5H45.75V61.5ZM51.375 61.5H52.375V60.5H51.375V61.5ZM51.375 78.375V79.375H52.375V78.375H51.375ZM45.75 78.375V77.375H44.75V78.375H45.75ZM45.75 84V85H46.75V84H45.75ZM18.625 84V78.375H16.625V84H18.625ZM17.625 79.375H40.125V77.375H17.625V79.375ZM41.125 78.375V61.5H39.125V78.375H41.125ZM40.125 60.5H23.25V62.5H40.125V60.5ZM24.25 61.5V55.875H22.25V61.5H24.25ZM23.25 54.875H17.625V56.875H23.25V54.875ZM18.625 55.875V39H16.625V55.875H18.625ZM17.625 40H23.25V38H17.625V40ZM24.25 39V33.375H22.25V39H24.25ZM23.25 34.375H51.375V32.375H23.25V34.375ZM50.375 33.375V39H52.375V33.375H50.375ZM51.375 38H28.875V40H51.375V38ZM27.875 39V55.875H29.875V39H27.875ZM28.875 56.875H45.75V54.875H28.875V56.875ZM44.75 55.875V61.5H46.75V55.875H44.75ZM45.75 62.5H51.375V60.5H45.75V62.5ZM50.375 61.5V78.375H52.375V61.5H50.375ZM51.375 77.375H45.75V79.375H51.375V77.375ZM44.75 78.375V84H46.75V78.375H44.75ZM45.75 83H17.625V85H45.75V83ZM57 84H56V85H57V84ZM57 33.375V32.375H56V33.375H57ZM68.25 33.375H69.25V32.375H68.25V33.375ZM68.25 55.875H67.25V56.875H68.25V55.875ZM85.125 55.875V56.875H86.125V55.875H85.125ZM85.125 33.375V32.375H84.125V33.375H85.125ZM96.375 33.375H97.375V32.375H96.375V33.375ZM96.375 84V85H97.375V84H96.375ZM85.125 84H84.125V85H85.125V84ZM85.125 61.5H86.125V60.5H85.125V61.5ZM68.25 61.5V60.5H67.25V61.5H68.25ZM68.25 84V85H69.25V84H68.25ZM58 84V33.375H56V84H58ZM57 34.375H68.25V32.375H57V34.375ZM67.25 33.375V55.875H69.25V33.375H67.25ZM68.25 56.875H85.125V54.875H68.25V56.875ZM86.125 55.875V33.375H84.125V55.875H86.125ZM85.125 34.375H96.375V32.375H85.125V34.375ZM95.375 33.375V84H97.375V33.375H95.375ZM96.375 83H85.125V85H96.375V83ZM86.125 84V61.5H84.125V84H86.125ZM85.125 60.5H68.25V62.5H85.125V60.5ZM67.25 61.5V84H69.25V61.5H67.25ZM68.25 83H57V85H68.25V83ZM102 84H101V85H102V84ZM102 78.375V77.375H101V78.375H102ZM107.625 78.375V79.375H108.625V78.375H107.625ZM107.625 39H108.625V38H107.625V39ZM102 39H101V40H102V39ZM102 33.375V32.375H101V33.375H102ZM124.5 33.375H125.5V32.375H124.5V33.375ZM124.5 39V40H125.5V39H124.5ZM118.875 39V38H117.875V39H118.875ZM118.875 78.375H117.875V79.375H118.875V78.375ZM124.5 78.375H125.5V77.375H124.5V78.375ZM124.5 84V85H125.5V84H124.5ZM103 84V78.375H101V84H103ZM102 79.375H107.625V77.375H102V79.375ZM108.625 78.375V39H106.625V78.375H108.625ZM107.625 38H102V40H107.625V38ZM103 39V33.375H101V39H103ZM102 34.375H124.5V32.375H102V34.375ZM123.5 33.375V39H125.5V33.375H123.5ZM124.5 38H118.875V40H124.5V38ZM117.875 39V78.375H119.875V39H117.875ZM118.875 79.375H124.5V77.375H118.875V79.375ZM123.5 78.375V84H125.5V78.375H123.5ZM124.5 83H102V85H124.5V83ZM158.25 55.875V56.875H159.25V55.875H158.25ZM158.25 39H159.25V38H158.25V39ZM141.375 39V38H140.375V39H141.375ZM141.375 55.875H140.375V56.875H141.375V55.875ZM130.125 84H129.125V85H130.125V84ZM130.125 33.375V32.375H129.125V33.375H130.125ZM163.875 33.375H164.875V32.375H163.875V33.375ZM163.875 39H162.875V40H163.875V39ZM169.5 39H170.5V38H169.5V39ZM169.5 55.875V56.875H170.5V55.875H169.5ZM163.875 55.875V54.875H162.875V55.875H163.875ZM163.875 61.5V62.5H164.875V61.5H163.875ZM141.375 61.5V60.5H140.375V61.5H141.375ZM141.375 84V85H142.375V84H141.375ZM159.25 55.875V39H157.25V55.875H159.25ZM158.25 38H141.375V40H158.25V38ZM140.375 39V55.875H142.375V39H140.375ZM141.375 56.875H158.25V54.875H141.375V56.875ZM131.125 84V33.375H129.125V84H131.125ZM130.125 34.375H163.875V32.375H130.125V34.375ZM162.875 33.375V39H164.875V33.375H162.875ZM163.875 40H169.5V38H163.875V40ZM168.5 39V55.875H170.5V39H168.5ZM169.5 54.875H163.875V56.875H169.5V54.875ZM162.875 55.875V61.5H164.875V55.875H162.875ZM163.875 60.5H141.375V62.5H163.875V60.5ZM140.375 61.5V84H142.375V61.5H140.375ZM141.375 83H130.125V85H141.375V83ZM203.25 84H202.25V85H203.25V84ZM203.25 39H204.25V38H203.25V39ZM192 39H191V40H192V39ZM192 33.375V32.375H191V33.375H192ZM225.75 33.375H226.75V32.375H225.75V33.375ZM225.75 39V40H226.75V39H225.75ZM214.5 39V38H213.5V39H214.5ZM214.5 84V85H215.5V84H214.5ZM204.25 84V39H202.25V84H204.25ZM203.25 38H192V40H203.25V38ZM193 39V33.375H191V39H193ZM192 34.375H225.75V32.375H192V34.375ZM224.75 33.375V39H226.75V33.375H224.75ZM225.75 38H214.5V40H225.75V38ZM213.5 39V84H215.5V39H213.5ZM214.5 83H203.25V85H214.5V83ZM259.5 55.875V56.875H260.5V55.875H259.5ZM259.5 39H260.5V38H259.5V39ZM242.625 39V38H241.625V39H242.625ZM242.625 55.875H241.625V56.875H242.625V55.875ZM231.375 84H230.375V85H231.375V84ZM231.375 33.375V32.375H230.375V33.375H231.375ZM265.125 33.375H266.125V32.375H265.125V33.375ZM265.125 39H264.125V40H265.125V39ZM270.75 39H271.75V38H270.75V39ZM270.75 55.875V56.875H271.75V55.875H270.75ZM265.125 55.875V54.875H264.125V55.875H265.125ZM265.125 61.5H264.125V62.5H265.125V61.5ZM270.75 61.5H271.75V60.5H270.75V61.5ZM270.75 84V85H271.75V84H270.75ZM259.5 84H258.5V85H259.5V84ZM259.5 61.5H260.5V60.5H259.5V61.5ZM242.625 61.5V60.5H241.625V61.5H242.625ZM242.625 84V85H243.625V84H242.625ZM260.5 55.875V39H258.5V55.875H260.5ZM259.5 38H242.625V40H259.5V38ZM241.625 39V55.875H243.625V39H241.625ZM242.625 56.875H259.5V54.875H242.625V56.875ZM232.375 84V33.375H230.375V84H232.375ZM231.375 34.375H265.125V32.375H231.375V34.375ZM264.125 33.375V39H266.125V33.375H264.125ZM265.125 40H270.75V38H265.125V40ZM269.75 39V55.875H271.75V39H269.75ZM270.75 54.875H265.125V56.875H270.75V54.875ZM264.125 55.875V61.5H266.125V55.875H264.125ZM265.125 62.5H270.75V60.5H265.125V62.5ZM269.75 61.5V84H271.75V61.5H269.75ZM270.75 83H259.5V85H270.75V83ZM260.5 84V61.5H258.5V84H260.5ZM259.5 60.5H242.625V62.5H259.5V60.5ZM241.625 61.5V84H243.625V61.5H241.625ZM242.625 83H231.375V85H242.625V83ZM304.5 67.125V68.125H305.5V67.125H304.5ZM304.5 44.625H305.5V43.625H304.5V44.625ZM293.25 44.625V43.625H292.25V44.625H293.25ZM293.25 67.125H292.25V68.125H293.25V67.125ZM276.375 84H275.375V85H276.375V84ZM276.375 61.5V60.5H275.375V61.5H276.375ZM282 61.5V62.5H283V61.5H282ZM282 44.625V43.625H281V44.625H282ZM287.625 44.625V45.625H288.625V44.625H287.625ZM287.625 39V38H286.625V39H287.625ZM293.25 39V40H294.25V39H293.25ZM293.25 33.375V32.375H292.25V33.375H293.25ZM304.5 33.375H305.5V32.375H304.5V33.375ZM304.5 39H303.5V40H304.5V39ZM310.125 39H311.125V38H310.125V39ZM310.125 44.625H309.125V45.625H310.125V44.625ZM315.75 44.625H316.75V43.625H315.75V44.625ZM315.75 61.5H314.75V62.5H315.75V61.5ZM321.375 61.5H322.375V60.5H321.375V61.5ZM321.375 84V85H322.375V84H321.375ZM310.125 84H309.125V85H310.125V84ZM310.125 72.75H311.125V71.75H310.125V72.75ZM287.625 72.75V71.75H286.625V72.75H287.625ZM287.625 84V85H288.625V84H287.625ZM305.5 67.125V44.625H303.5V67.125H305.5ZM304.5 43.625H293.25V45.625H304.5V43.625ZM292.25 44.625V67.125H294.25V44.625H292.25ZM293.25 68.125H304.5V66.125H293.25V68.125ZM277.375 84V61.5H275.375V84H277.375ZM276.375 62.5H282V60.5H276.375V62.5ZM283 61.5V44.625H281V61.5H283ZM282 45.625H287.625V43.625H282V45.625ZM288.625 44.625V39H286.625V44.625H288.625ZM287.625 40H293.25V38H287.625V40ZM294.25 39V33.375H292.25V39H294.25ZM293.25 34.375H304.5V32.375H293.25V34.375ZM303.5 33.375V39H305.5V33.375H303.5ZM304.5 40H310.125V38H304.5V40ZM309.125 39V44.625H311.125V39H309.125ZM310.125 45.625H315.75V43.625H310.125V45.625ZM314.75 44.625V61.5H316.75V44.625H314.75ZM315.75 62.5H321.375V60.5H315.75V62.5ZM320.375 61.5V84H322.375V61.5H320.375ZM321.375 83H310.125V85H321.375V83ZM311.125 84V72.75H309.125V84H311.125ZM310.125 71.75H287.625V73.75H310.125V71.75ZM286.625 72.75V84H288.625V72.75H286.625ZM287.625 83H276.375V85H287.625V83ZM332.625 84H331.625V85H332.625V84ZM332.625 78.375H333.625V77.375H332.625V78.375ZM327 78.375H326V79.375H327V78.375ZM327 39V38H326V39H327ZM332.625 39V40H333.625V39H332.625ZM332.625 33.375V32.375H331.625V33.375H332.625ZM360.75 33.375H361.75V32.375H360.75V33.375ZM360.75 39V40H361.75V39H360.75ZM338.25 39V38H337.25V39H338.25ZM338.25 72.75H337.25V73.75H338.25V72.75ZM360.75 72.75H361.75V71.75H360.75V72.75ZM360.75 84V85H361.75V84H360.75ZM333.625 84V78.375H331.625V84H333.625ZM332.625 77.375H327V79.375H332.625V77.375ZM328 78.375V39H326V78.375H328ZM327 40H332.625V38H327V40ZM333.625 39V33.375H331.625V39H333.625ZM332.625 34.375H360.75V32.375H332.625V34.375ZM359.75 33.375V39H361.75V33.375H359.75ZM360.75 38H338.25V40H360.75V38ZM337.25 39V72.75H339.25V39H337.25ZM338.25 73.75H360.75V71.75H338.25V73.75ZM359.75 72.75V84H361.75V72.75H359.75ZM360.75 83H332.625V85H360.75V83ZM366.375 84H365.375V85H366.375V84ZM366.375 33.375V32.375H365.375V33.375H366.375ZM377.625 33.375H378.625V32.375H377.625V33.375ZM377.625 50.25H376.625V51.25H377.625V50.25ZM383.25 50.25V51.25H384.25V50.25H383.25ZM383.25 44.625V43.625H382.25V44.625H383.25ZM388.875 44.625V45.625H389.875V44.625H388.875ZM388.875 39V38H387.875V39H388.875ZM394.5 39V40H395.5V39H394.5ZM394.5 33.375V32.375H393.5V33.375H394.5ZM405.75 33.375H406.75V32.375H405.75V33.375ZM405.75 44.625V45.625H406.75V44.625H405.75ZM400.125 44.625V43.625H399.125V44.625H400.125ZM400.125 50.25V51.25H401.125V50.25H400.125ZM394.5 50.25V49.25H393.5V50.25H394.5ZM394.5 55.875V56.875H395.5V55.875H394.5ZM388.875 55.875V54.875H387.875V55.875H388.875ZM388.875 61.5H387.875V62.5H388.875V61.5ZM394.5 61.5H395.5V60.5H394.5V61.5ZM394.5 67.125H393.5V68.125H394.5V67.125ZM400.125 67.125H401.125V66.125H400.125V67.125ZM400.125 72.75H399.125V73.75H400.125V72.75ZM405.75 72.75H406.75V71.75H405.75V72.75ZM405.75 84V85H406.75V84H405.75ZM394.5 84H393.5V85H394.5V84ZM394.5 78.375H395.5V77.375H394.5V78.375ZM388.875 78.375H387.875V79.375H388.875V78.375ZM388.875 72.75H389.875V71.75H388.875V72.75ZM383.25 72.75H382.25V73.75H383.25V72.75ZM383.25 67.125H384.25V66.125H383.25V67.125ZM377.625 67.125V66.125H376.625V67.125H377.625ZM377.625 84V85H378.625V84H377.625ZM367.375 84V33.375H365.375V84H367.375ZM366.375 34.375H377.625V32.375H366.375V34.375ZM376.625 33.375V50.25H378.625V33.375H376.625ZM377.625 51.25H383.25V49.25H377.625V51.25ZM384.25 50.25V44.625H382.25V50.25H384.25ZM383.25 45.625H388.875V43.625H383.25V45.625ZM389.875 44.625V39H387.875V44.625H389.875ZM388.875 40H394.5V38H388.875V40ZM395.5 39V33.375H393.5V39H395.5ZM394.5 34.375H405.75V32.375H394.5V34.375ZM404.75 33.375V44.625H406.75V33.375H404.75ZM405.75 43.625H400.125V45.625H405.75V43.625ZM399.125 44.625V50.25H401.125V44.625H399.125ZM400.125 49.25H394.5V51.25H400.125V49.25ZM393.5 50.25V55.875H395.5V50.25H393.5ZM394.5 54.875H388.875V56.875H394.5V54.875ZM387.875 55.875V61.5H389.875V55.875H387.875ZM388.875 62.5H394.5V60.5H388.875V62.5ZM393.5 61.5V67.125H395.5V61.5H393.5ZM394.5 68.125H400.125V66.125H394.5V68.125ZM399.125 67.125V72.75H401.125V67.125H399.125ZM400.125 73.75H405.75V71.75H400.125V73.75ZM404.75 72.75V84H406.75V72.75H404.75ZM405.75 83H394.5V85H405.75V83ZM395.5 84V78.375H393.5V84H395.5ZM394.5 77.375H388.875V79.375H394.5V77.375ZM389.875 78.375V72.75H387.875V78.375H389.875ZM388.875 71.75H383.25V73.75H388.875V71.75ZM384.25 72.75V67.125H382.25V72.75H384.25ZM383.25 66.125H377.625V68.125H383.25V66.125ZM376.625 67.125V84H378.625V67.125H376.625ZM377.625 83H366.375V85H377.625V83ZM417 84H416V85H417V84ZM417 78.375H418V77.375H417V78.375ZM411.375 78.375H410.375V79.375H411.375V78.375ZM411.375 39V38H410.375V39H411.375ZM417 39V40H418V39H417ZM417 33.375V32.375H416V33.375H417ZM450.75 33.375H451.75V32.375H450.75V33.375ZM450.75 39V40H451.75V39H450.75ZM422.625 39V38H421.625V39H422.625ZM422.625 55.875H421.625V56.875H422.625V55.875ZM445.125 55.875H446.125V54.875H445.125V55.875ZM445.125 61.5V62.5H446.125V61.5H445.125ZM422.625 61.5V60.5H421.625V61.5H422.625ZM422.625 72.75H421.625V73.75H422.625V72.75ZM450.75 72.75H451.75V71.75H450.75V72.75ZM450.75 84V85H451.75V84H450.75ZM418 84V78.375H416V84H418ZM417 77.375H411.375V79.375H417V77.375ZM412.375 78.375V39H410.375V78.375H412.375ZM411.375 40H417V38H411.375V40ZM418 39V33.375H416V39H418ZM417 34.375H450.75V32.375H417V34.375ZM449.75 33.375V39H451.75V33.375H449.75ZM450.75 38H422.625V40H450.75V38ZM421.625 39V55.875H423.625V39H421.625ZM422.625 56.875H445.125V54.875H422.625V56.875ZM444.125 55.875V61.5H446.125V55.875H444.125ZM445.125 60.5H422.625V62.5H445.125V60.5ZM421.625 61.5V72.75H423.625V61.5H421.625ZM422.625 73.75H450.75V71.75H422.625V73.75ZM449.75 72.75V84H451.75V72.75H449.75ZM450.75 83H417V85H450.75V83ZM484.5 55.875V56.875H485.5V55.875H484.5ZM484.5 39H485.5V38H484.5V39ZM467.625 39V38H466.625V39H467.625ZM467.625 55.875H466.625V56.875H467.625V55.875ZM456.375 84H455.375V85H456.375V84ZM456.375 33.375V32.375H455.375V33.375H456.375ZM490.125 33.375H491.125V32.375H490.125V33.375ZM490.125 39H489.125V40H490.125V39ZM495.75 39H496.75V38H495.75V39ZM495.75 55.875V56.875H496.75V55.875H495.75ZM490.125 55.875V54.875H489.125V55.875H490.125ZM490.125 61.5H489.125V62.5H490.125V61.5ZM495.75 61.5H496.75V60.5H495.75V61.5ZM495.75 84V85H496.75V84H495.75ZM484.5 84H483.5V85H484.5V84ZM484.5 61.5H485.5V60.5H484.5V61.5ZM467.625 61.5V60.5H466.625V61.5H467.625ZM467.625 84V85H468.625V84H467.625ZM485.5 55.875V39H483.5V55.875H485.5ZM484.5 38H467.625V40H484.5V38ZM466.625 39V55.875H468.625V39H466.625ZM467.625 56.875H484.5V54.875H467.625V56.875ZM457.375 84V33.375H455.375V84H457.375ZM456.375 34.375H490.125V32.375H456.375V34.375ZM489.125 33.375V39H491.125V33.375H489.125ZM490.125 40H495.75V38H490.125V40ZM494.75 39V55.875H496.75V39H494.75ZM495.75 54.875H490.125V56.875H495.75V54.875ZM489.125 55.875V61.5H491.125V55.875H489.125ZM490.125 62.5H495.75V60.5H490.125V62.5ZM494.75 61.5V84H496.75V61.5H494.75ZM495.75 83H484.5V85H495.75V83ZM485.5 84V61.5H483.5V84H485.5ZM484.5 60.5H467.625V62.5H484.5V60.5ZM466.625 61.5V84H468.625V61.5H466.625ZM467.625 83H456.375V85H467.625V83Z" fill="black" mask="url(#path-15-outside-1_16_105)"/>
<defs>
<linearGradient id="paint0_linear_16_105" x1="0" y1="20" x2="1384" y2="20" gradientUnits="userSpaceOnUse">
<stop stop-color="#FB915C"/>
<stop offset="1" stop-color="#A71F1F"/>
</linearGradient>
<linearGradient id="paint1_linear_16_105" x1="0" y1="26" x2="1384" y2="26" gradientUnits="userSpaceOnUse">
<stop stop-color="#FB915C"/>
<stop offset="1" stop-color="#A71F1F"/>
</linearGradient>
<linearGradient id="paint2_linear_16_105" x1="0" y1="32" x2="1384" y2="32" gradientUnits="userSpaceOnUse">
<stop stop-color="#FB915C"/>
<stop offset="1" stop-color="#A71F1F"/>
</linearGradient>
<linearGradient id="paint3_linear_16_105" x1="0" y1="38" x2="1384" y2="38" gradientUnits="userSpaceOnUse">
<stop stop-color="#FB915C"/>
<stop offset="1" stop-color="#A71F1F"/>
</linearGradient>
<linearGradient id="paint4_linear_16_105" x1="0" y1="44" x2="1384" y2="44" gradientUnits="userSpaceOnUse">
<stop stop-color="#FB915C"/>
<stop offset="1" stop-color="#A71F1F"/>
</linearGradient>
<linearGradient id="paint5_linear_16_105" x1="0" y1="50" x2="1384" y2="50" gradientUnits="userSpaceOnUse">
<stop stop-color="#FB915C"/>
<stop offset="1" stop-color="#A71F1F"/>
</linearGradient>
<linearGradient id="paint6_linear_16_105" x1="0" y1="56" x2="1384" y2="56" gradientUnits="userSpaceOnUse">
<stop stop-color="#FB915C"/>
<stop offset="1" stop-color="#A71F1F"/>
</linearGradient>
<linearGradient id="paint7_linear_16_105" x1="0" y1="62" x2="1384" y2="62" gradientUnits="userSpaceOnUse">
<stop stop-color="#FB915C"/>
<stop offset="1" stop-color="#A71F1F"/>
</linearGradient>
<linearGradient id="paint8_linear_16_105" x1="0" y1="68" x2="1384" y2="68" gradientUnits="userSpaceOnUse">
<stop stop-color="#FB915C"/>
<stop offset="1" stop-color="#A71F1F"/>
</linearGradient>
<linearGradient id="paint9_linear_16_105" x1="0" y1="74" x2="1384" y2="74" gradientUnits="userSpaceOnUse">
<stop stop-color="#FB915C"/>
<stop offset="1" stop-color="#A71F1F"/>
</linearGradient>
<linearGradient id="paint10_linear_16_105" x1="0" y1="80" x2="1384" y2="80" gradientUnits="userSpaceOnUse">
<stop stop-color="#FB915C"/>
<stop offset="1" stop-color="#A71F1F"/>
</linearGradient>
<linearGradient id="paint11_linear_16_105" x1="0" y1="86" x2="1384" y2="86" gradientUnits="userSpaceOnUse">
<stop stop-color="#FB915C"/>
<stop offset="1" stop-color="#A71F1F"/>
</linearGradient>
<linearGradient id="paint12_linear_16_105" x1="0" y1="92" x2="1384" y2="92" gradientUnits="userSpaceOnUse">
<stop stop-color="#FB915C"/>
<stop offset="1" stop-color="#A71F1F"/>
</linearGradient>
<linearGradient id="paint13_linear_16_105" x1="0" y1="98" x2="1384" y2="98" gradientUnits="userSpaceOnUse">
<stop stop-color="#FB915C"/>
<stop offset="1" stop-color="#A71F1F"/>
</linearGradient>
<linearGradient id="paint14_linear_16_105" x1="12" y1="54.5" x2="953" y2="44.5" gradientUnits="userSpaceOnUse">
<stop stop-color="#FB915C"/>
<stop offset="1" stop-color="#A71F1F"/>
</linearGradient>
</defs>
</svg>
